<?xml version="1.0" standalone="no"?>
<!DOCTYPE svg PUBLIC "-//W3C//DTD SVG 20010904//EN"
 "http://www.w3.org/TR/2001/REC-SVG-20010904/DTD/svg10.dtd">
<svg version="1.0" xmlns="http://www.w3.org/2000/svg"
 width="248.000000pt" height="137.000000pt" viewBox="0 0 248.000000 137.000000"
 preserveAspectRatio="xMidYMid meet">

<g transform="translate(0.000000,137.000000) scale(0.100000,-0.100000)"
fill="#000000" stroke="none">
<path d="M1400 680 l0 -642 358 4 c308 4 365 7 412 22 80 26 130 53 173 95 63
59 80 102 85 212 5 119 -16 177 -88 242 -43 39 -65 49 -180 84 -9 3 2 10 25
17 122 38 183 112 193 233 11 137 -50 254 -161 307 -111 54 -148 59 -494 63
l-323 5 0 -642z m623 386 c45 -22 58 -34 72 -68 29 -74 3 -143 -69 -181 -36
-19 -60 -22 -198 -25 l-158 -4 0 157 0 158 149 -5 c136 -4 154 -7 204 -32z
m58 -508 c109 -64 107 -203 -4 -264 -51 -28 -56 -29 -229 -32 l-178 -4 0 167
0 167 183 -4 c177 -3 183 -4 228 -30z"/>
</g>
</svg>
